<svg xmlns="http://www.w3.org/2000/svg" version="1.1" xmlns:xlink="http://www.w3.org/1999/xlink" xmlns:svgjs="http://svgjs.com/svgjs" width="1440" height="560" preserveAspectRatio="none" viewBox="0 0 1440 560">
    <g mask="url(&quot;#SvgjsMask2029&quot;)" fill="none">
        <rect width="1440" height="560" x="0" y="0" fill="url(#SvgjsLinearGradient2030)"></rect>
        <path d="M720 676.2C827.71 679.47 934.57 646.86 1013.49 573.49 1095.19 497.5 1147.52 391.59 1146.05 280 1144.59 169.67 1084.62 71.41 1005.84-5.84 927.94-82.2 829.07-137.83 720-137.69 611.06-137.55 510.49-83.53 434.94-5.06 360.89 71.85 316.22 173.24 317.92 280 319.58 385.16 368.95 482.33 443.85 556.15 518.18 629.38 615.69 673.04 720 676.2" fill="rgba(138, 21, 25, 1)"></path>
        <path d="M720 536.37C789.7 538.48 858.84 517.38 909.9 469.9 962.77 420.73 996.63 352.2 995.68 280 994.74 208.61 955.93 145.03 904.95 95.05 854.55 45.63 790.58 9.64 720 9.73 649.51 9.82 584.44 44.78 535.55 95.55 487.64 145.32 458.73 210.92 459.83 280 460.91 348.05 492.85 410.92 541.32 458.68 589.41 506.07 652.5 534.32 720 536.37" fill="rgba(255, 24, 33, 1)"></path>
        <path d="M720 396.53C751.68 397.49 783.11 387.9 806.32 366.32 830.35 343.97 845.74 312.82 845.31 280 844.88 247.55 827.24 218.65 804.07 195.93 781.16 173.47 752.08 157.11 720 157.15 687.96 157.19 658.38 173.08 636.16 196.16 614.38 218.78 601.24 248.6 601.74 280 602.23 310.93 616.75 339.51 638.78 361.22 660.64 382.76 689.32 395.6 720 396.53" fill="rgba(249, 97, 103, 1)"></path>
    </g>
    <defs>
        <mask id="SvgjsMask2029">
            <rect width="1440" height="560" fill="#ffffff"></rect>
        </mask>
        <linearGradient x1="0%" y1="50%" x2="100%" y2="50%" gradientUnits="userSpaceOnUse" id="SvgjsLinearGradient2030">
            <stop stop-color="rgba(158, 0, 69, 1)" offset="0.05"></stop>
            <stop stop-color="rgba(14, 42, 71, 1)" offset="0.46"></stop>
            <stop stop-color="rgba(158, 0, 69, 1)" offset="1"></stop>
            <stop stop-color="rgba(158, 0, 69, 1)" offset="1"></stop>
        </linearGradient>
    </defs>
</svg>
